<svg id="Copy 2" width="24" height="24" viewBox="0 0 24 24" fill="none" xmlns="http://www.w3.org/2000/svg">
  <path fill-rule="evenodd" clip-rule="evenodd" d="M3.355 3.45506C4.07805 2.67832 5.10277 2.25 6.2944 2.25H12.069C13.1201 2.25 14.0422 2.57989 14.7437 3.19491C15.4427 3.80788 15.8756 4.66269 16.0261 5.63312C16.0895 6.04244 15.8091 6.42571 15.3998 6.48917C14.9905 6.55262 14.6072 6.27224 14.5438 5.86292C14.4399 5.19289 14.155 4.67369 13.7547 4.32276C13.3569 3.97389 12.7982 3.75 12.069 3.75H6.2944C5.47574 3.75 4.86388 4.03562 4.45292 4.4771C4.03646 4.92448 3.77124 5.59223 3.77124 6.44497V11.8837C3.77124 12.6606 3.99233 13.2849 4.34638 13.7257C4.69559 14.1604 5.20801 14.4606 5.88583 14.5446C6.29689 14.5956 6.5888 14.9702 6.53782 15.3812C6.48685 15.7923 6.11229 16.0842 5.70122 16.0332C4.65705 15.9037 3.78332 15.42 3.17689 14.665C2.57529 13.916 2.27124 12.9444 2.27124 11.8837V6.44497C2.27124 5.28063 2.63745 4.22589 3.355 3.45506Z" fill="#FFFFFF"></path>
  <path fill-rule="evenodd" clip-rule="evenodd" d="M8.99395 9.13225C9.71719 8.35653 10.7419 7.92969 11.9333 7.92969H17.706C18.9002 7.92969 19.9254 8.35619 20.6483 9.13266C21.3655 9.90307 21.7292 10.957 21.7292 12.1198V17.5586C21.7292 18.7214 21.3655 19.7753 20.6481 20.5458C19.9251 21.3223 18.8997 21.7487 17.705 21.7487H11.9333C10.7391 21.7487 9.71388 21.3222 8.99102 20.5457C8.27381 19.7753 7.91016 18.7214 7.91016 17.5586V12.1198C7.91016 10.9559 8.27614 9.90215 8.99395 9.13225ZM10.0911 10.1552C9.67512 10.6013 9.41016 11.2675 9.41016 12.1198V17.5586C9.41016 18.4119 9.67406 19.078 10.0889 19.5236C10.4981 19.9632 11.1095 20.2487 11.9333 20.2487H17.705C18.5294 20.2487 19.1411 19.9631 19.5503 19.5236C19.9653 19.078 20.2292 18.4119 20.2292 17.5586V12.1198C20.2292 11.2665 19.9653 10.6004 19.5504 10.1547C19.1412 9.71519 18.5298 9.42969 17.706 9.42969H11.9333C11.1134 9.42969 10.5016 9.71484 10.0911 10.1552Z" fill="#FFFFFF"></path>
</svg>
