<svg id="Dashboard 3" width="24" height="24" viewBox="0 0 24 24" fill="none" xmlns="http://www.w3.org/2000/svg">
  <path d="M21 12C21 7.02908 16.9709 3 12 3C7.02908 3 3 7.02908 3 12C3 16.9699 7.02908 21 12 21C16.9709 21 21 16.9699 21 12Z" stroke="#FFFFFF" stroke-width="1.5" stroke-linecap="round" stroke-linejoin="round"></path>
  <path d="M12 3V5.25049M5.63672 5.63672L7.22753 7.22753M18.3637 18.3646L16.6133 16.6152M5.63672 18.3646L7.3871 16.6152M18.3642 5.63672L16.7734 7.22753M3 12H5.47524M21.0009 12H18.75" stroke="#FFFFFF" stroke-width="1.5" stroke-linecap="round" stroke-linejoin="round"></path>
  <path fill-rule="evenodd" clip-rule="evenodd" d="M12.0006 14.8874C10.2122 14.8874 9.75591 13.1594 9.95245 12.2808C10.149 11.4022 11.0461 10.0362 12.0006 9.25586C12.955 10.0362 13.8521 11.4022 14.0487 12.2808C14.2452 13.1594 13.7889 14.8874 12.0006 14.8874Z" stroke="#FFFFFF" stroke-width="1.5" stroke-linecap="round" stroke-linejoin="round"></path>
</svg>
