<svg id="Down graph" width="24" height="24" viewBox="0 0 24 24" fill="none" xmlns="http://www.w3.org/2000/svg">
  <path fill-rule="evenodd" clip-rule="evenodd" d="M22.4242 17.2901C22.4742 17.1681 22.5002 17.0401 22.5002 16.9101L22.4993 12.0001C22.4993 11.4471 22.0503 11.0001 21.4993 11.0001C20.9463 11.0001 20.4993 11.4481 20.4993 12.0001V14.4961L14.4333 8.43309C14.0433 8.04209 13.4102 8.04209 13.0192 8.43309L9.63625 11.8161L4.20725 6.38309C3.81625 5.99209 3.18325 5.99209 2.79325 6.38309C2.40225 6.77209 2.40225 7.40609 2.79325 7.79709L8.92925 13.9371C9.11725 14.1251 9.37125 14.2301 9.63625 14.2301C9.90225 14.2301 10.1562 14.1251 10.3432 13.9371L13.7262 10.5541L19.0853 15.9101H16.5903C16.0373 15.9101 15.5903 16.3571 15.5903 16.9101C15.5903 17.4631 16.0373 17.9101 16.5903 17.9101H21.5002C21.6292 17.9101 21.7582 17.8841 21.8792 17.8351C22.0012 17.7851 22.1123 17.7121 22.2073 17.6171C22.3013 17.5231 22.3743 17.4111 22.4242 17.2901Z" fill="#FFFFFF"></path>
</svg>
