<svg id="horizontal Mirror" width="24" height="24" viewBox="0 0 24 24" fill="none" xmlns="http://www.w3.org/2000/svg">
  <path fill-rule="evenodd" clip-rule="evenodd" d="M11.4641 16.4821L8.74018 19.878C8.37938 20.3283 8.7003 20.9964 9.27699 20.9964H14.7239C15.3016 20.9964 15.6215 20.3283 15.2607 19.878L12.5368 16.4821C12.2616 16.1388 11.7393 16.1388 11.4641 16.4821Z" stroke="#FFFFFF" stroke-width="1.5" stroke-linecap="round" stroke-linejoin="round"></path>
  <path fill-rule="evenodd" clip-rule="evenodd" d="M12.537 7.51822L15.2609 4.12227C15.6217 3.67201 15.3008 3.00391 14.7241 3.00391H9.27717C8.69951 3.00391 8.37956 3.67201 8.74035 4.12227L11.4643 7.51822C11.7395 7.8615 12.2617 7.8615 12.537 7.51822Z" stroke="#FFFFFF" stroke-width="1.5" stroke-linecap="round" stroke-linejoin="round"></path>
  <path d="M8.33351 11.998H10.3339M13.667 11.998H15.6674M18.9996 11.998H21M3 11.998H5.00042" stroke="#FFFFFF" stroke-width="1.5" stroke-linecap="round" stroke-linejoin="round"></path>
</svg>
