<svg id="Moon" width="24" height="24" viewBox="0 0 24 24" fill="none" xmlns="http://www.w3.org/2000/svg">
  <path d="M12.1827 21.7423C6.71269 21.7423 2.25269 17.2923 2.25269 11.8123C2.25269 7.40231 5.21269 3.48233 9.44269 2.27233C9.73269 2.19233 10.1027 2.31232 10.2927 2.54232C10.4927 2.79232 10.5327 3.14234 10.3727 3.43234C8.84269 6.32234 9.38269 9.96231 11.7127 12.2823C14.0327 14.6023 17.6727 15.1523 20.5627 13.6123C20.8327 13.4723 21.2227 13.5123 21.4527 13.7023C21.6827 13.8923 21.8027 14.2623 21.7227 14.5523C20.5127 18.7923 16.5827 21.7523 12.1827 21.7523V21.7423ZM8.41269 4.28231C5.61269 5.69231 3.75269 8.60232 3.75269 11.8223C3.75269 16.4723 7.53269 20.2523 12.1827 20.2523C15.4027 20.2523 18.3127 18.3923 19.7227 15.5823C16.5827 16.5523 13.0427 15.7323 10.6627 13.3423C8.28269 10.9623 7.45269 7.42231 8.42269 4.28231H8.41269Z" fill="#FFFFFF"></path>
</svg>
