<svg id="Edit profile" width="24" height="24" viewBox="0 0 24 24" fill="none" xmlns="http://www.w3.org/2000/svg">
  <path fill-rule="evenodd" clip-rule="evenodd" d="M17.1026 14.4188L14.0927 17.7345C13.9425 17.9024 13.8489 18.1132 13.8248 18.3385L13.7392 19.1288C13.7314 19.2003 13.7935 19.2585 13.8635 19.2468L14.6286 19.1187C14.6285 19.1187 14.6287 19.1186 14.6286 19.1187C14.8727 19.0774 15.0952 18.9549 15.2599 18.7707L15.2638 18.7664L18.2469 15.482C18.3602 15.3595 18.3526 15.1687 18.2308 15.0558C18.2308 15.0557 18.2309 15.0558 18.2308 15.0558L17.5272 14.4046C17.4053 14.292 17.2158 14.2988 17.1026 14.4188ZM16.0006 13.4011C16.6763 12.672 17.8154 12.628 18.5456 13.3033L19.2499 13.9551C19.9781 14.63 20.0234 15.7674 19.3507 16.4977L16.376 19.773C15.9837 20.2105 15.4556 20.5003 14.8783 20.5977L14.1123 20.726C13.061 20.9025 12.1331 20.0261 12.2479 18.9674L12.3333 18.1786C12.3333 18.1787 12.3333 18.1785 12.3333 18.1786C12.391 17.641 12.6156 17.1346 12.9774 16.7313L12.9804 16.7281L16.0006 13.4011Z" fill="#FFFFFF"></path>
  <path fill-rule="evenodd" clip-rule="evenodd" d="M11.3075 4.75C9.47043 4.75 7.98047 6.23996 7.98047 8.077C7.98047 9.91482 9.47032 11.404 11.3075 11.404C13.1446 11.404 14.6345 9.91482 14.6345 8.077C14.6345 6.23996 13.1445 4.75 11.3075 4.75ZM6.48047 8.077C6.48047 5.41153 8.642 3.25 11.3075 3.25C13.9729 3.25 16.1345 5.41153 16.1345 8.077C16.1345 10.7435 13.9728 12.904 11.3075 12.904C8.64211 12.904 6.48047 10.7435 6.48047 8.077Z" fill="#FFFFFF"></path>
  <path fill-rule="evenodd" clip-rule="evenodd" d="M6.84175 17.2461C6.00733 18.0021 5.67383 18.9638 5.67383 19.8107C5.67383 20.2249 5.33804 20.5607 4.92383 20.5607C4.50961 20.5607 4.17383 20.2249 4.17383 19.8107C4.17383 18.5737 4.6624 17.1965 5.83465 16.1345C7.00875 15.0708 8.80067 14.3828 11.3064 14.3828C11.7206 14.3828 12.0564 14.7186 12.0564 15.1328C12.0564 15.547 11.7206 15.8828 11.3064 15.8828C9.07368 15.8828 7.67433 16.4918 6.84175 17.2461Z" fill="#FFFFFF"></path>
</svg>
