<svg id="Setting" width="24" height="24" viewBox="0 0 24 24" fill="none" xmlns="http://www.w3.org/2000/svg">
  <path d="M15.7097 21.7506C15.2657 21.7506 14.8287 21.6096 14.4647 21.3366L13.3667 20.5136C13.2467 20.4226 13.1295 20.4131 12.9996 20.4027L12.9867 20.4016C12.8707 20.3726 12.7177 20.4206 12.5957 20.5126L11.4937 21.3366C11.1627 21.5846 10.6927 21.5176 10.4437 21.1856C10.1957 20.8546 10.2637 20.3846 10.5957 20.1356L11.6947 19.3126C12.0517 19.0426 12.5107 18.9396 12.9787 18.9016C13.4917 18.8886 13.9067 19.0426 14.2687 19.3146L15.3647 20.1366C15.5197 20.2526 15.7287 20.2816 15.9197 20.2136C16.1887 20.1176 16.4517 20.0086 16.7087 19.8876C16.8937 19.8006 17.0197 19.6326 17.0477 19.4396L17.2437 18.0726C17.3067 17.6296 17.5087 17.2246 17.8287 16.9026C18.1887 16.5386 18.6067 16.3266 19.0517 16.2636L20.4207 16.0666C20.6117 16.0396 20.7787 15.9126 20.8667 15.7276C20.9877 15.4716 21.0987 15.2086 21.1937 14.9396C21.2627 14.7496 21.2337 14.5416 21.1167 14.3866L20.2877 13.2796C20.0217 12.9236 19.8757 12.4836 19.8737 12.0396C19.8697 11.5286 20.0177 11.0816 20.2867 10.7206L21.1167 9.61561C21.2327 9.45961 21.2627 9.25161 21.1937 9.05961C21.0977 8.79261 20.9867 8.52861 20.8657 8.26961C20.7797 8.08861 20.6127 7.96061 20.4227 7.93461L19.0607 7.73861C18.6097 7.67361 18.1957 7.46061 17.8597 7.12261C17.5157 6.77761 17.3027 6.36161 17.2407 5.91561L17.0477 4.56161C17.0197 4.36861 16.8937 4.20061 16.7087 4.11361C16.4527 3.99461 16.1897 3.88361 15.9217 3.78761C15.7247 3.71861 15.5217 3.74861 15.3657 3.86361L14.2657 4.68761C13.5407 5.23361 12.3997 5.22161 11.6917 4.68561L10.5947 3.86461C10.4397 3.74661 10.2317 3.71961 10.0397 3.78761C9.77171 3.88361 9.50871 3.99261 9.25271 4.11361C9.06671 4.20161 8.93971 4.36761 8.91371 4.55961L8.71771 5.91961C8.65571 6.36361 8.44371 6.77761 8.10671 7.11661L8.10292 7.11982C8.10171 7.12131 8.10036 7.12296 8.09871 7.12461C7.76071 7.46161 7.34671 7.67561 6.89871 7.73961L5.53971 7.93461C5.34671 7.96061 5.18071 8.08761 5.09171 8.27261C4.97171 8.52861 4.86271 8.79261 4.76671 9.05961C4.69771 9.25161 4.72671 9.45961 4.84371 9.61661L5.67171 10.7206C5.93671 11.0726 6.08471 11.5146 6.08571 11.9616C6.08971 12.4786 5.94671 12.9116 5.67471 13.2776L4.84271 14.3856C4.59471 14.7176 4.12471 14.7846 3.79271 14.5356C3.46071 14.2866 3.39471 13.8166 3.64371 13.4856L4.47371 12.3796C4.54771 12.2796 4.58771 12.1596 4.58671 12.0336C4.58471 11.8406 4.54471 11.7186 4.47271 11.6216L3.64271 10.5156C3.22371 9.95561 3.11571 9.22261 3.35471 8.55461C3.46671 8.24061 3.59471 7.93261 3.73671 7.63061C4.04271 6.98761 4.63771 6.54561 5.32971 6.44861L6.68571 6.25461C6.84071 6.23261 6.96171 6.13961 7.03671 6.06461C7.05971 6.04261 7.08271 6.02061 7.10671 6.00161L7.11327 5.99181C7.13777 5.95601 7.21405 5.84455 7.23271 5.70861L7.42871 4.34861C7.52571 3.65661 7.96771 3.06161 8.61171 2.75761C8.91271 2.61561 9.22071 2.48761 9.53471 2.37561C10.2047 2.13661 10.9377 2.24461 11.4947 2.66461L12.5947 3.48661C12.8557 3.68561 13.1307 3.66561 13.3647 3.48861L14.4667 2.66361C15.0247 2.24361 15.7587 2.13461 16.4267 2.37561C16.7387 2.48761 17.0467 2.61561 17.3477 2.75661C17.9897 3.06061 18.4327 3.65461 18.5317 4.34761L18.7267 5.70661C18.7477 5.86161 18.8417 5.98261 18.9157 6.05761C18.9977 6.13961 19.1167 6.23161 19.2737 6.25461L20.6337 6.44961C21.3217 6.54561 21.9167 6.98761 22.2227 7.62861C22.3657 7.93461 22.4937 8.24161 22.6057 8.55461C22.8447 9.22361 22.7357 9.95661 22.3167 10.5156L21.4867 11.6206C21.4117 11.7216 21.3717 11.8416 21.3727 11.9686C21.3737 12.1596 21.4147 12.2826 21.4877 12.3806L22.3157 13.4856C22.7367 14.0436 22.8457 14.7766 22.6057 15.4456C22.4927 15.7606 22.3647 16.0696 22.2227 16.3706C21.9177 17.0116 21.3237 17.4526 20.6337 17.5516L19.2647 17.7486C19.1407 17.7656 19.0267 17.8226 18.9387 17.9126C18.8027 18.0506 18.7457 18.1626 18.7287 18.2836L18.5317 19.6526C18.4327 20.3466 17.9897 20.9406 17.3497 21.2436C17.0477 21.3856 16.7387 21.5136 16.4247 21.6256C16.1907 21.7096 15.9487 21.7506 15.7097 21.7506Z" fill="#FFFFFF"></path>
  <path d="M5.391 19.8889C5.766 20.2199 6.244 20.3819 6.729 20.3819C7.299 20.3819 7.879 20.1569 8.306 19.7169L11.482 16.5079C13.089 16.9889 14.84 16.5439 16.018 15.3279C17.286 14.0219 17.644 12.1009 16.933 10.4349C16.868 10.2809 16.729 10.1699 16.564 10.1389C16.4 10.1109 16.231 10.1619 16.115 10.2829L14.146 12.3119C14.086 12.3749 13.997 12.4049 13.91 12.3869L12.965 12.2159C12.859 12.1959 12.776 12.1159 12.754 12.0119L12.55 11.0659C12.532 10.9809 12.557 10.8919 12.619 10.8279L14.586 8.80094C14.702 8.67994 14.751 8.50894 14.714 8.34594C14.678 8.18094 14.563 8.04694 14.407 7.98594C12.715 7.33194 10.808 7.74794 9.546 9.04994C8.366 10.2659 7.975 12.0269 8.506 13.6189L5.271 16.8889C4.879 17.2949 4.666 17.8519 4.689 18.4159C4.712 18.9869 4.961 19.5109 5.391 19.8889Z" fill="#FFFFFF"></path>
</svg>
