<svg id="Up graph" width="24" height="24" viewBox="0 0 24 24" fill="none" xmlns="http://www.w3.org/2000/svg">
  <path fill-rule="evenodd" clip-rule="evenodd" d="M22.4234 6.70784C22.3224 6.46284 22.1274 6.26784 21.8824 6.16684C21.7604 6.11584 21.6304 6.08984 21.5004 6.08984H16.5914C16.0384 6.08984 15.5914 6.53684 15.5914 7.08984C15.5914 7.64284 16.0384 8.08984 16.5914 8.08984H19.0854L13.7274 13.4458L10.3444 10.0618C9.96938 9.68684 9.30638 9.68684 8.93038 10.0618L2.79238 16.2028C2.40238 16.5938 2.40238 17.2268 2.79338 17.6168C2.98838 17.8118 3.24438 17.9098 3.50038 17.9098C3.75638 17.9098 4.01238 17.8118 4.20738 17.6168L9.63738 12.1838L13.0194 15.5668C13.4104 15.9578 14.0434 15.9578 14.4344 15.5668L20.5004 9.50284V11.9998C20.5004 12.5528 20.9474 12.9998 21.5004 12.9998C22.0534 12.9998 22.5004 12.5528 22.5004 11.9998V7.08984C22.5004 6.95984 22.4734 6.82984 22.4234 6.70784Z" fill="#FFFFFF"></path>
</svg>
