<svg id="Vertical Mirror " width="24" height="24" viewBox="0 0 24 24" fill="none" xmlns="http://www.w3.org/2000/svg">
  <path fill-rule="evenodd" clip-rule="evenodd" d="M7.51768 11.4639L4.12189 8.74046C3.67139 8.37947 3.00391 8.69959 3.00391 9.27658V14.7244C3.00391 15.3005 3.67139 15.6216 4.12189 15.2606L7.51768 12.5371C7.86116 12.2618 7.86116 11.7393 7.51768 11.4639Z" stroke="#FFFFFF" stroke-width="1.5" stroke-linecap="round" stroke-linejoin="round"></path>
  <path d="M12.002 8.33253V10.333M12.002 13.667V15.6675M12.002 18.9995V21M12.002 3V5.0005" stroke="#FFFFFF" stroke-width="1.5" stroke-linecap="round" stroke-linejoin="round"></path>
  <path fill-rule="evenodd" clip-rule="evenodd" d="M16.4822 12.5371L19.878 15.2606C20.3285 15.6216 20.996 15.3014 20.996 14.7244V9.27658C20.996 8.69959 20.3285 8.37947 19.878 8.74046L16.4822 11.4639C16.1387 11.7393 16.1387 12.2618 16.4822 12.5371Z" stroke="#FFFFFF" stroke-width="1.5" stroke-linecap="round" stroke-linejoin="round"></path>
</svg>
