<svg id="Zoom in" width="24" height="24" viewBox="0 0 24 24" fill="none" xmlns="http://www.w3.org/2000/svg">
  <path fill-rule="evenodd" clip-rule="evenodd" d="M11.6324 3.75C7.39782 3.75 3.96533 7.18249 3.96533 11.4171C3.96533 15.6518 7.39793 19.0851 11.6324 19.0851C13.6405 19.0851 15.4682 18.313 16.835 17.0495C16.8456 17.0392 16.8563 17.0292 16.8673 17.0196C18.364 15.6201 19.2995 13.6278 19.2995 11.4171C19.2995 7.18249 15.867 3.75 11.6324 3.75ZM18.4192 17.5801C19.8982 15.952 20.7995 13.7897 20.7995 11.4171C20.7995 6.35406 16.6954 2.25 11.6324 2.25C6.56939 2.25 2.46533 6.35406 2.46533 11.4171C2.46533 16.48 6.56928 20.5851 11.6324 20.5851C13.7825 20.5851 15.7597 19.8448 17.323 18.6052L20.2554 21.5309C20.5486 21.8235 21.0235 21.823 21.316 21.5297C21.6086 21.2365 21.608 20.7616 21.3148 20.4691L18.4192 17.5801ZM11.6318 8.43076C12.046 8.43076 12.3818 8.76655 12.3818 9.18076V10.6674H13.8688C14.283 10.6674 14.6188 11.0032 14.6188 11.4174C14.6188 11.8316 14.283 12.1674 13.8688 12.1674H12.3818V13.6544C12.3818 14.0686 12.046 14.4044 11.6318 14.4044C11.2176 14.4044 10.8818 14.0686 10.8818 13.6544V12.1674H9.39514C8.98093 12.1674 8.64514 11.8316 8.64514 11.4174C8.64514 11.0032 8.98093 10.6674 9.39514 10.6674H10.8818V9.18076C10.8818 8.76655 11.2176 8.43076 11.6318 8.43076Z" fill="#FFFFFF"></path>
</svg>
