<svg class="w-4 h-4 me-2" viewBox="0 0 99 101" version="1.1" xmlns="http://www.w3.org/2000/svg" xmlns:xlink="http://www.w3.org/1999/xlink"><g id="页面-1" stroke="none" stroke-width="1" fill="none" fill-rule="evenodd"><g id="画板" transform="translate(-637.000000, -198.000000)" fill-rule="nonzero"><g id="Google_logo" transform="translate(637.992180, 198.555556)"><path id="形状结合" d="M97.4923998,56.9161607 C94.9859282,82.360637 76.5285081,99.7776415 49.8926655,99.7776415 C24.6022856,99.7776415 3.89511874,81.0621896 0.490861066,56.9159694 L19.7232209,56.9157943 C22.8767058,70.9520988 35.2678722,81.3180399 49.8828998,81.3180399 C69.591995,81.3180399 76.8255093,67.1048496 78.0652569,59.8713353 L78.0652569,59.8713353 L49.8828998,59.8713353 L49.8820158,56.915293 L97.4923998,56.9161607 Z" fill="#15B457"></path><path id="路径" d="M84.0591115,86.8041791 C92.7861822,78.0771084 97.7744595,65.6015177 97.7744595,51.1345087 C97.7744595,47.893587 97.5206525,45.3945606 97.0227994,42.9052902 L49.8829985,42.9052902 L49.8829985,59.8713255 L78.0653555,59.8713255 C77.3136954,64.1079613 74.5706249,70.8436039 68.5866238,75.5878477 L84.0591027,86.8041791 L84.0591115,86.8041791 Z" fill="#278BE6"></path><path id="路径" d="M5.9840011,73.586693 C2.24522722,66.6069779 -7.63833441e-14,58.6218221 -7.63833441e-14,49.8947612 C-7.63833441e-14,42.407438 1.49355643,35.4277522 4.49043491,29.1899519 L20.4510004,40.4160392 C19.4552961,43.4129177 18.9574439,46.6538394 18.9574439,49.8947709 C18.9574439,54.1314067 19.709104,58.3777984 21.4564703,62.1165625 L5.98399134,73.586693 L5.9840011,73.586693 Z" fill="#F0BB2F"></path><path id="路径" d="M4.49044468,29.1899519 C12.2218111,11.9798733 29.6856888,0.002125 49.8828803,0.002125 C63.354185,0.002125 74.5802723,4.99041205 83.3073333,12.9755776 L69.8360285,25.9490302 C66.0972546,22.4542996 59.6056455,18.2176638 49.8828803,18.2176638 C35.9137234,18.2176638 23.9457408,27.9502044 20.1972012,41.1676905 L4.49044468,29.1899422 L4.49044468,29.1899519 Z" fill="#EC3838"></path></g></g></g></svg>
